<?xml version="1.0" encoding="utf-8"?>

<!-- The icon can be used freely in both personal and commercial projects with no attribution required, but always appreciated. 
You may NOT sub-license, resell, rent, redistribute or otherwise transfer the icon without express written permission from iconmonstr.com -->

<!DOCTYPE svg PUBLIC "-//W3C//DTD SVG 1.1//EN" "http://www.w3.org/Graphics/SVG/1.1/DTD/svg11.dtd">
<svg version="1.1" xmlns="http://www.w3.org/2000/svg" xmlns:xlink="http://www.w3.org/1999/xlink" x="0px" y="0px"
	 width="42px" height="42px" viewBox="0 0 512 512" enable-background="new 0 0 512 512" xml:space="preserve">
<path id="debit-5-icon" d="M383.967,174.021v16.653h-52.298v-16.653H383.967z M128.071,190.675h66.175
	c0.71-5.553,1.414-11.085,2.122-16.653h-68.297V190.675z M128.071,223.543h61.948c0.73-5.655,1.445-11.191,2.147-16.653h-64.096
	V223.543z M436.555,76.295v170.912c0,14.522-11.772,26.295-26.295,26.295h-57.009c-0.537,7.378-1.807,15.548-3.799,25.011
	c-7.753,36.812-28.109,87.93-14.252,144.517c-39.709,6.121-62.686,8.985-102.877,18.971c-4.687-69.737-38.88-84.857-30.958-145.397
	c9.301-71.012,14.484-110.922,20.533-158.876c1.904-15.094,12.558-22.435,22.957-22.434c10.832,0.002,21.388,7.971,21.483,23.445
	c0.362,56.709,1.857,113.187,5.57,126.918c2.507,9.263,18.656,10.949,18.656-8.785c0-2.213-0.027-29.664-0.027-29.664h110.957
	c4.841,0,8.765-3.924,8.765-8.765v-87.794H288.977c-3.646-23.404-22.368-38.631-44.118-38.637c-0.002,0-0.006,0-0.007,0
	c-21.249,0-40.558,14.7-45.364,38.637H101.74v87.794c0,4.841,3.925,8.765,8.766,8.765h76.445
	c-1.086,8.356-2.223,17.079-3.427,26.295H101.74c-14.521,0-26.295-11.772-26.295-26.295V76.295C75.445,61.772,87.219,50,101.74,50
	h308.52C424.782,50,436.555,61.772,436.555,76.295z M410.26,85.06c0-4.841-3.924-8.765-8.765-8.765H110.506
	c-4.841,0-8.766,3.924-8.766,8.765v18.552h308.52V85.06z M143.361,350.054c14.6-3.649,29.105-8.134,33.388-9.481
	c-0.229-7.993,0.21-16.883,1.533-26.993c0.798-6.09,1.565-11.954,2.31-17.637l-55.773,19.82
	c-10.609,3.848-14.104,11.066-11.27,19.66C116.958,345.756,128.402,353.794,143.361,350.054z M178.287,357.022l-34.795,11.274
	c-7.906,2.868-10.512,8.249-8.399,14.652c2.541,7.701,11.07,13.692,22.218,10.904c10.411-2.602,24.174-6.803,29.194-8.357
	C183.031,376.816,180.027,367.729,178.287,357.022z"/>
</svg>
